<svg width="31" height="26" viewBox="0 0 31 26" fill="none" xmlns="http://www.w3.org/2000/svg">
<path d="M20.9891 0.833252C21.8015 0.83328 22.5978 1.05949 23.2888 1.48654C23.9799 1.91359 24.5384 2.52462 24.9018 3.25117L26.9187 7.28346C27.2745 7.13763 27.6289 6.99033 27.973 6.81971C28.3192 6.64682 28.7199 6.61853 29.0869 6.74105C29.4539 6.86357 29.7572 7.12688 29.9301 7.47304C30.103 7.81921 30.1313 8.21987 30.0088 8.58689C29.8863 8.95392 29.623 9.25724 29.2768 9.43013C28.5564 9.78888 28.2268 9.89971 28.2268 9.89971L29.621 12.6895C29.9258 13.2976 30.0833 13.967 30.0833 14.6466V18.3333C30.0832 18.9488 29.9533 19.5574 29.702 20.1193C29.4508 20.6812 29.0837 21.1837 28.6249 21.5941V23.4374C28.6249 24.0176 28.3945 24.574 27.9842 24.9842C27.574 25.3944 27.0176 25.6249 26.4374 25.6249C25.8573 25.6249 25.3009 25.3944 24.8906 24.9842C24.4804 24.574 24.2499 24.0176 24.2499 23.4374V22.7083H6.74992V23.4374C6.74992 24.0176 6.51945 24.574 6.10922 24.9842C5.69898 25.3944 5.14258 25.6249 4.56242 25.6249C3.98226 25.6249 3.42586 25.3944 3.01563 24.9842C2.60539 24.574 2.37492 24.0176 2.37492 23.4374V21.5941C1.47951 20.792 0.91659 19.6283 0.91659 18.3333V14.6466C0.916863 13.9677 1.07513 13.2981 1.37888 12.691L2.77305 9.89971C2.41971 9.7535 2.07054 9.5974 1.72597 9.43158C1.55407 9.3463 1.4007 9.22793 1.27463 9.08327C1.14857 8.9386 1.0523 8.77047 0.991331 8.58852C0.930366 8.40658 0.905908 8.21439 0.919359 8.02297C0.93281 7.83156 0.983904 7.64468 1.06972 7.47304C1.24614 7.12841 1.55116 6.86709 1.91879 6.74564C2.28642 6.62419 2.68708 6.65237 3.03409 6.82408C3.37826 6.98936 3.72728 7.14249 4.08117 7.28346L6.09805 3.25117C6.46145 2.52462 7.01996 1.91359 7.71102 1.48654C8.40208 1.05949 9.19839 0.83328 10.0108 0.833252H20.9891ZM25.4662 10.9016C22.987 11.6847 19.4593 12.4999 15.4999 12.4999C11.5405 12.4999 8.01284 11.6833 5.53367 10.9016L3.98784 13.9933C3.8862 14.196 3.83327 14.4197 3.83326 14.6466V18.3333C3.83326 18.72 3.9869 19.091 4.26039 19.3644C4.53388 19.6379 4.90482 19.7916 5.29159 19.7916H25.7083C26.095 19.7916 26.466 19.6379 26.7395 19.3644C27.0129 19.091 27.1666 18.72 27.1666 18.3333V14.6466C27.1663 14.4202 27.1134 14.1971 27.012 13.9947L25.4662 10.9016ZM8.93742 13.9583C9.51758 13.9583 10.074 14.1887 10.4842 14.599C10.8945 15.0092 11.1249 15.5656 11.1249 16.1458C11.1249 16.7259 10.8945 17.2823 10.4842 17.6925C10.074 18.1028 9.51758 18.3333 8.93742 18.3333C8.35726 18.3333 7.80086 18.1028 7.39063 17.6925C6.98039 17.2823 6.74992 16.7259 6.74992 16.1458C6.74992 15.5656 6.98039 15.0092 7.39063 14.599C7.80086 14.1887 8.35726 13.9583 8.93742 13.9583ZM22.0624 13.9583C22.6426 13.9583 23.199 14.1887 23.6092 14.599C24.0195 15.0092 24.2499 15.5656 24.2499 16.1458C24.2499 16.7259 24.0195 17.2823 23.6092 17.6925C23.199 18.1028 22.6426 18.3333 22.0624 18.3333C21.4823 18.3333 20.9259 18.1028 20.5156 17.6925C20.1054 17.2823 19.8749 16.7259 19.8749 16.1458C19.8749 15.5656 20.1054 15.0092 20.5156 14.599C20.9259 14.1887 21.4823 13.9583 22.0624 13.9583ZM20.9891 3.74992H10.0108C9.74 3.75006 9.47463 3.82558 9.24436 3.96802C9.0141 4.11045 8.82803 4.31418 8.70701 4.55638L6.85492 8.25617C9.11242 8.93429 12.1545 9.58325 15.4999 9.58325C18.8453 9.58325 21.8874 8.93429 24.1435 8.25617L22.2928 4.55638C22.1718 4.31418 21.9857 4.11045 21.7555 3.96802C21.5252 3.82558 21.2598 3.75006 20.9891 3.74992Z" fill="black"/>
</svg>
