<svg width="30" height="30" viewBox="0 0 30 30" fill="none" xmlns="http://www.w3.org/2000/svg">
<path d="M24.2807 5.72693C23.0641 4.49832 21.6168 3.52219 20.0218 2.85462C18.4268 2.18705 16.7157 1.84121 14.9866 1.83695C13.2576 1.8327 11.5448 2.17012 9.94655 2.82982C8.34832 3.48953 6.89618 4.45852 5.67357 5.68114C4.45096 6.90375 3.48196 8.35589 2.82225 9.95412C2.16255 11.5524 1.82513 13.2652 1.82939 14.9942C1.83364 16.7232 2.17949 18.4344 2.84705 20.0294C3.51462 21.6243 4.49075 23.0717 5.71937 24.2883C6.93595 25.5169 8.38329 26.493 9.97826 27.1606C11.5732 27.8281 13.2844 28.174 15.0134 28.1782C16.7424 28.1825 18.4553 27.8451 20.0535 27.1854C21.6517 26.5257 23.1039 25.5567 24.3265 24.3341C25.5491 23.1114 26.5181 21.6593 27.1778 20.0611C27.8375 18.4628 28.1749 16.75 28.1707 15.021C28.1664 13.2919 27.8206 11.5808 27.153 9.98583C26.4854 8.39086 25.5093 6.94351 24.2807 5.72693ZM3.75003 15.0076C3.74959 14.0119 3.88161 13.0206 4.14261 12.0597C4.57269 12.9855 5.1973 13.7853 5.6221 14.7351C6.17112 15.9562 7.64534 15.6176 8.29632 16.6875C8.87405 17.6373 8.25706 18.8385 8.68948 19.8322C9.00355 20.5535 9.74417 20.7111 10.2551 21.2385C10.7772 21.7705 10.766 22.4994 10.8457 23.1931C10.9356 24.0083 11.0814 24.8162 11.2823 25.6113C11.2823 25.6172 11.2823 25.6236 11.2869 25.6295C6.90237 24.0896 3.75003 19.9101 3.75003 15.0076ZM15 26.2576C14.3718 26.2574 13.7446 26.2049 13.125 26.1006C13.1315 25.9418 13.1344 25.7935 13.1502 25.6904C13.2926 24.7588 13.759 23.8476 14.3883 23.1504C15.01 22.4625 15.8619 21.9972 16.3869 21.2168C16.9014 20.4551 17.0555 19.4297 16.8434 18.5396C16.5311 17.2248 14.7446 16.7859 13.7813 16.0728C13.2276 15.6627 12.7348 15.0287 12.0076 14.9771C11.6725 14.9537 11.3918 15.0258 11.0596 14.9402C10.7549 14.8611 10.5159 14.6971 10.1912 14.7398C9.58479 14.8195 9.20218 15.4676 8.55062 15.3797C7.93245 15.2971 7.29554 14.5734 7.15491 13.9846C6.97444 13.2275 7.57327 12.982 8.21487 12.9146C8.48265 12.8865 8.78323 12.856 9.04046 12.9545C9.37913 13.0799 9.53909 13.4115 9.84319 13.5791C10.4133 13.892 10.5287 13.3922 10.4414 12.8859C10.3108 12.1277 10.1584 11.8189 10.8346 11.2969C11.3034 10.9371 11.7041 10.6769 11.6291 10.0306C11.5846 9.65096 11.3766 9.47928 11.5705 9.10135C11.7176 8.81365 12.1213 8.55408 12.3844 8.3824C13.0635 7.93943 15.2936 7.97225 14.3825 6.7324C14.1147 6.36854 13.6207 5.71815 13.152 5.62908C12.566 5.51834 12.3059 6.17225 11.8975 6.46053C11.4756 6.75877 10.6541 7.09744 10.2317 6.63631C9.66331 6.0158 10.6084 5.81248 10.8176 5.37889C10.9143 5.17674 10.8176 4.89608 10.6547 4.63182C10.866 4.54275 11.0809 4.46014 11.2992 4.38397C11.4361 4.48504 11.5984 4.54592 11.768 4.55975C12.16 4.58553 12.5297 4.37342 12.8719 4.64061C13.2516 4.93357 13.5252 5.30389 14.0291 5.39529C14.5166 5.48377 15.0328 5.19959 15.1535 4.70037C15.2268 4.39686 15.1535 4.07635 15.0832 3.76287C17.2747 3.77548 19.4141 4.43177 21.2356 5.65018C21.1184 5.60565 20.9783 5.61092 20.8055 5.69119C20.4498 5.85643 19.9459 6.27713 19.9043 6.69432C19.8569 7.16775 20.5553 7.23455 20.8869 7.23455C21.385 7.23455 21.8895 7.0119 21.7289 6.4365C21.6592 6.1869 21.5643 5.92733 21.4114 5.77029C21.779 6.02536 22.1312 6.30201 22.466 6.59881C22.4608 6.60408 22.4555 6.60877 22.4502 6.61463C22.1127 6.96619 21.7207 7.24451 21.4899 7.67225C21.327 7.97342 21.1436 8.11639 20.8137 8.19432C20.6321 8.23709 20.4246 8.25291 20.2723 8.37479C19.8481 8.70877 20.0895 9.5115 20.4914 9.75232C20.9994 10.0564 21.753 9.91346 22.1362 9.47928C22.4356 9.13943 22.6119 8.5494 23.1504 8.54998C23.3875 8.54949 23.6152 8.64231 23.7844 8.80838C24.0071 9.03924 23.9631 9.25486 24.0106 9.54314C24.0944 10.0553 24.5461 9.77752 24.8209 9.51912C25.0213 9.87561 25.202 10.2428 25.3623 10.6189C25.06 11.0543 24.8198 11.5289 24.0926 11.0215C23.6573 10.7174 23.3895 10.2762 22.8428 10.139C22.3653 10.0219 21.876 10.1437 21.4043 10.2252C20.8682 10.3183 20.2325 10.3594 19.8258 10.7654C19.4326 11.1568 19.2246 11.6806 18.8063 12.0738C17.9971 12.8355 17.6555 13.667 18.1793 14.7439C18.6832 15.7793 19.7373 16.3412 20.8746 16.2674C21.992 16.193 23.1528 15.5449 23.1205 17.1685C23.1088 17.7433 23.2289 18.1412 23.4053 18.675C23.5688 19.1672 23.5576 19.6441 23.5951 20.1521C23.6308 20.747 23.7238 21.337 23.8729 21.914C22.8226 23.2663 21.4772 24.3605 19.9395 25.1133C18.4017 25.8661 16.7122 26.2575 15 26.2576Z" fill="black"/>
</svg>
