<svg width="35" height="35" viewBox="0 0 35 35" fill="none" xmlns="http://www.w3.org/2000/svg">
<path d="M28.0437 22.2542L24.3395 21.8313C23.904 21.7802 23.4625 21.8284 23.0483 21.9724C22.634 22.1163 22.2578 22.3523 21.9479 22.6626L19.2645 25.3459C15.1249 23.24 11.76 19.8751 9.6541 15.7355L12.352 13.0376C12.9791 12.4105 13.2854 11.5355 13.1833 10.6459L12.7604 6.9709C12.678 6.25937 12.3367 5.60302 11.8014 5.12698C11.2662 4.65093 10.5746 4.38848 9.85827 4.38965H7.33535C5.68744 4.38965 4.3166 5.76049 4.41869 7.4084C5.1916 19.8626 15.152 29.8084 27.5916 30.5813C29.2395 30.6834 30.6104 29.3126 30.6104 27.6647V25.1417C30.6249 23.6688 29.5166 22.4292 28.0437 22.2542Z" fill="black"/>
</svg>
