<svg width="26" height="30" viewBox="0 0 26 30" fill="none" xmlns="http://www.w3.org/2000/svg">
<path d="M12.9999 -9.45013e-05C11.4042 -0.0749357 9.81042 0.184227 8.32063 0.760805C6.83083 1.33738 5.47784 2.21867 4.34825 3.34825C3.21867 4.47784 2.33738 5.83083 1.7608 7.32063C1.18423 8.81042 0.925064 10.4042 0.999905 11.9999C0.999905 15.7799 3.99991 19.4999 5.49991 20.9999C6.99991 22.4999 12.9999 29.9999 12.9999 29.9999C12.9999 29.9999 18.9999 22.4999 20.4999 20.9999C21.9999 19.4999 24.9999 15.7799 24.9999 11.9999C25.0747 10.4042 24.8156 8.81042 24.239 7.32063C23.6624 5.83083 22.7811 4.47784 21.6516 3.34825C20.522 2.21867 19.169 1.33738 17.6792 0.760805C16.1894 0.184227 14.5956 -0.0749357 12.9999 -9.45013e-05ZM12.9999 16.8749C12.0357 16.8749 11.0932 16.589 10.2915 16.0533C9.48981 15.5176 8.86497 14.7563 8.49599 13.8655C8.12702 12.9747 8.03047 11.9945 8.21858 11.0488C8.40668 10.1032 8.87098 9.23454 9.55276 8.55276C10.2345 7.87098 11.1032 7.40668 12.0488 7.21858C12.9945 7.03047 13.9747 7.12702 14.8655 7.49599C15.7563 7.86497 16.5176 8.48981 17.0533 9.2915C17.589 10.0932 17.8749 11.0357 17.8749 11.9999C17.8749 12.6401 17.7488 13.274 17.5038 13.8655C17.2588 14.457 16.8997 14.9944 16.4471 15.4471C15.9944 15.8997 15.457 16.2588 14.8655 16.5038C14.274 16.7488 13.6401 16.8749 12.9999 16.8749Z" fill="black"/>
</svg>
