<svg width="22" height="22" viewBox="0 0 22 22" fill="none" xmlns="http://www.w3.org/2000/svg">
<path d="M10.6266 18.2726L5.47522 21.607C5.24765 21.7626 5.00973 21.8293 4.76147 21.807C4.51321 21.7848 4.29598 21.6959 4.10979 21.5403C3.92359 21.3847 3.77877 21.1904 3.67533 20.9574C3.57189 20.7245 3.5512 20.463 3.61327 20.1732L4.9787 13.8711L0.416922 9.63644C0.210039 9.43637 0.080944 9.2083 0.029637 8.95222C-0.02167 8.69613 -0.00636074 8.44628 0.075565 8.20264C0.157491 7.95901 0.281621 7.75894 0.447955 7.60245C0.614289 7.44595 0.84186 7.34592 1.13067 7.30235L7.15097 6.7355L9.47841 0.800258C9.58185 0.533505 9.74239 0.333441 9.96003 0.200064C10.1777 0.0666879 10.3999 0 10.6266 0C10.8534 0 11.0755 0.0666879 11.2932 0.200064C11.5108 0.333441 11.6714 0.533505 11.7748 0.800258L14.1022 6.7355L20.1225 7.30235C20.4122 7.34681 20.6398 7.44684 20.8053 7.60245C20.9708 7.75805 21.0949 7.95812 21.1777 8.20264C21.2604 8.44717 21.2761 8.69747 21.2248 8.95355C21.1735 9.20963 21.044 9.43726 20.8363 9.63644L16.2745 13.8711L17.6399 20.1732C17.702 20.4621 17.6813 20.7236 17.5779 20.9574C17.4744 21.1913 17.3296 21.3856 17.1434 21.5403C16.9572 21.695 16.74 21.7839 16.4917 21.807C16.2435 21.8301 16.0056 21.7635 15.778 21.607L10.6266 18.2726Z" fill="black"/>
</svg>
